<?xml version="1.0" encoding="UTF-8"?>
<svg xmlns="http://www.w3.org/2000/svg" xmlns:xlink="http://www.w3.org/1999/xlink" width="1440px" height="6929px" version="1.1" viewBox="0 0 1440 6929">
<!--Generator: Sketch 55.2 (78181) - https://sketchapp.com-->
    <title>
        Desktop HD
    </title>
    <desc>
        Created with Sketch.
    </desc>
    <g id="Desktop-HD" fill="none" fill-rule="evenodd" stroke="none" stroke-width="1">
        <rect width="1440" height="6929" x="0" y="0" fill="#FFFFFF" opacity="0"/>
        <g id="Ovals-BG" transform="translate(0.000000, 1192.000000)">
            <circle id="Oval" cx="215" cy="76" r="34" fill="#6B34FB" fill-opacity="0.05"/>
            <circle id="Oval" cx="1389" cy="34" r="34" fill="#6B34FB" fill-opacity="0.05"/>
            <g id="Group" opacity="0.05" transform="translate(0.000000, 822.000000)">
                <circle id="Oval" cx="90.5" cy="90.5" r="90.5" fill="#FB3455"/>
                <circle id="Oval" cx="90.5" cy="90.5" r="76.5" fill="#FFFFFF"/>
            </g>
            <circle id="Oval" cx="998.5" cy="275.5" r="45.5" fill="#FB3455" fill-opacity="0.05"/>
            <circle id="Oval" cx="343.5" cy="727.5" r="15.5" fill="#6B34FB" fill-opacity="0.05"/>
            <circle id="Oval" cx="215" cy="76" r="18" fill="#FFFFFF" fill-opacity="0.05"/>
        </g>
        <g id="Work-Experience-Background" transform="translate(0.000000, 1945.000000)">
            <path id="Path-5" fill="#FB3455" fill-opacity="0.05" d="M0,417 C147.49271,696.743018 221.239064,927.874747 221.239064,1110.39519 C221.239064,1269.20808 147.49271,1379.40968 0,1441 L0,417 Z"/>
            <circle id="Oval" cx="367.5" cy="1317.5" r="33.5" fill="#FB3455" fill-opacity="0.05"/>
            <circle id="Oval" cx="376" cy="580" r="56" fill="#6B34FB" fill-opacity="0.05"/>
            <g id="Group-2" opacity="0.05" transform="translate(1096.000000, 0.000000)">
                <circle id="Oval" cx="307" cy="307" r="307" fill="#6B34FB"/>
                <circle id="Oval" cx="307" cy="307" r="231" fill="#FFFFFF"/>
                <circle id="Oval" cx="309.5" cy="309.5" r="136.5" fill="#6B34FB"/>
            </g>
            <circle id="Oval" cx="1259.5" cy="1250.5" r="15.5" fill="#6B34FB" fill-opacity="0.05"/>
            <circle id="Oval" cx="1259.5" cy="1250.5" r="15.5" fill="#6B34FB" fill-opacity="0.05"/>
            <g id="Group-5" opacity="0.05" transform="translate(1275.000000, 935.000000)">
                <circle id="Oval" cx="90.5" cy="90.5" r="90.5" fill="#FB3455"/>
                <circle id="Oval" cx="91" cy="91" r="65" fill="#FFFFFF"/>
            </g>
        </g>
        <g id="Skills-Background" transform="translate(-179.000000, 3602.000000)">
            <circle id="Oval" cx="1483.5" cy="133.5" r="59.5" fill="#FB3455" fill-opacity="0.05"/>
            <circle id="Oval" cx="338" cy="265" r="24" fill="#FB3455" fill-opacity="0.05"/>
            <circle id="Oval" cx="1337.5" cy="479.5" r="33.5" fill="#FB3455" fill-opacity="0.05"/>
            <circle id="Oval" cx="916" cy="799" r="9" fill="#FB3455" fill-opacity="0.05"/>
            <circle id="Oval" cx="940.5" cy="304.5" r="15.5" fill="#6B34FB" fill-opacity="0.05"/>
            <g id="Group-2" opacity="0.05" transform="translate(0.000000, 471.000000)">
                <circle id="Oval" cx="225" cy="225" r="225" fill="#FB3455"/>
                <circle id="Oval" cx="225.5" cy="225.5" r="169.5" fill="#FFFFFF"/>
                <circle id="Oval" cx="226" cy="225" r="98" fill="#FB3455"/>
            </g>
            <g id="Group-5" opacity="0.05" transform="translate(493.000000, 0.000000)">
                <circle id="Oval" cx="51.5" cy="51.5" r="51.5" fill="#6B34FB"/>
                <circle id="Oval" cx="52" cy="52" r="37" fill="#FFFFFF"/>
            </g>
            <g id="Group-5" opacity="0.05" transform="translate(1398.000000, 897.000000)">
                <circle id="Oval" cx="36.5" cy="36.5" r="36.5" fill="#FB3455"/>
                <circle id="Oval" cx="37" cy="37" r="26" fill="#FFFFFF"/>
            </g>
            <circle id="Oval" cx="655" cy="596" r="9" fill="#6B34FB" fill-opacity="0.05"/>
            <circle id="Oval" cx="1559.5" cy="698.5" r="59.5" fill="#6B34FB" fill-opacity="0.05"/>
        </g>
        <g id="Skills-Background" transform="translate(0.000000, 4749.000000)">
            <circle id="Oval" cx="1483.5" cy="133.5" r="59.5" fill="#FB3455" fill-opacity="0.05"/>
            <circle id="Oval" cx="338" cy="265" r="24" fill="#FB3455" fill-opacity="0.05"/>
            <circle id="Oval" cx="1337.5" cy="479.5" r="33.5" fill="#FB3455" fill-opacity="0.05"/>
            <circle id="Oval" cx="916" cy="799" r="9" fill="#FB3455" fill-opacity="0.05"/>
            <circle id="Oval" cx="940.5" cy="304.5" r="15.5" fill="#6B34FB" fill-opacity="0.05"/>
            <g id="Group-2" opacity="0.05" transform="translate(0.000000, 471.000000)">
                <circle id="Oval" cx="225" cy="225" r="225" fill="#FB3455"/>
                <circle id="Oval" cx="225.5" cy="225.5" r="169.5" fill="#FFFFFF"/>
                <circle id="Oval" cx="226" cy="225" r="98" fill="#FB3455"/>
            </g>
            <g id="Group-5" opacity="0.05" transform="translate(493.000000, 0.000000)">
                <circle id="Oval" cx="51.5" cy="51.5" r="51.5" fill="#6B34FB"/>
                <circle id="Oval" cx="52" cy="52" r="37" fill="#FFFFFF"/>
            </g>
            <g id="Group-5" opacity="0.05" transform="translate(1398.000000, 897.000000)">
                <circle id="Oval" cx="36.5" cy="36.5" r="36.5" fill="#FB3455"/>
                <circle id="Oval" cx="37" cy="37" r="26" fill="#FFFFFF"/>
            </g>
            <circle id="Oval" cx="655" cy="596" r="9" fill="#6B34FB" fill-opacity="0.05"/>
        </g>
        <g id="Contact-Background" transform="translate(94.076015, 5854.000000)">
            <g id="Group-2" opacity="0.05" transform="translate(1003.923985, 253.000000)">
                <circle id="Oval" cx="100" cy="100" r="100" fill="#6B34FB"/>
                <circle id="Oval" cx="100.5" cy="100.5" r="75.5" fill="#FFFFFF"/>
                <circle id="Oval" cx="100.5" cy="100.5" r="43.5" fill="#6B34FB"/>
            </g>
            <circle id="Oval" cx="276.923985" cy="76" r="76" fill="#FB3455" fill-opacity="0.05"/>
            <circle id="Oval" cx="1027.92398" cy="828" r="24" fill="#FB3455" fill-opacity="0.05"/>
            <circle id="Oval" cx="95.9239847" cy="377" r="87" fill="#FB3455" fill-opacity="0.05"/>
            <circle id="Oval" cx="295.923985" cy="919" r="57" fill="#FB3455" fill-opacity="0.05"/>
            <circle id="Oval" cx="724.423985" cy="1030.5" r="81.5" fill="#6B34FB" fill-opacity="0.05"/>
            <circle id="Oval" cx="1330.42398" cy="652.5" r="31.5" fill="#6B34FB" fill-opacity="0.05"/>
            <circle id="Oval" cx="49.4239847" cy="789.5" r="48.5" fill="#6B34FB" fill-opacity="0.05"/>
            <circle id="Oval" cx="488.923985" cy="790" r="24" fill="#6B34FB" fill-opacity="0.05"/>
            <circle id="Oval" cx="660.923985" cy="90" r="14" fill="#6B34FB" fill-opacity="0.05"/>
        </g>
    </g>
</svg>
